<?xml version="1.0"?>
<svg xmlns="http://www.w3.org/2000/svg" xmlns:xlink="http://www.w3.org/1999/xlink" xmlns:svgjs="http://svgjs.com/svgjs" version="1.1" width="512" height="512" x="0" y="0" viewBox="0 0 512 512" style="enable-background:new 0 0 512 512" xml:space="preserve" class=""><g>
<g xmlns="http://www.w3.org/2000/svg">
	<g>
		<path d="M301.568,395.104l-70.272-15.296V359.04c3.68-5.312,7.104-12.096,10.656-19.136c2.656-5.248,6.656-13.184,8.32-15.072    c11.424-11.168,23.584-25.024,27.36-43.392c3.776-18.272-0.992-27.648-3.744-31.328c0-12.864,0-36.32-4.48-53.536    c-0.512-20.768-4.576-33.12-14.336-43.744c-7.328-7.936-17.664-9.664-25.952-11.072c-2.688-0.448-6.72-1.12-7.936-1.728    c-13.984-7.776-28.192-11.584-45.792-12.032c-35.52,1.344-79.168,23.968-93.792,64.544c-4.16,11.52-4.16,28.736-3.776,48.448    l-0.032,7.808c-2.56,5.024-7.328,14.4-3.552,32.64c3.776,18.4,15.936,32.256,27.264,43.328c1.792,2.016,5.888,9.984,8.576,15.264    c3.584,7.008,7.008,13.76,10.688,19.04v20.768l-70.272,15.296C21.216,401.408,0,427.712,0,457.632V496c0,8.832,7.168,16,16,16h320    c8.832,0,16-7.168,16-16v-38.368C352,427.712,330.784,401.408,301.568,395.104z" fill="#ffffff" data-original="#000000" style="" class=""/>
	</g>
</g>
<g xmlns="http://www.w3.org/2000/svg">
	<g>
		<path d="M368,0c-67.2,0-123.2,46.24-139.072,108.512c1.216,0.576,2.528,0.768,3.712,1.376l1.792,0.32    c10.336,1.76,29.44,4.992,44.16,20.928c14.656,15.968,21.536,34.368,22.688,61.088c3.776,16.864,4.48,36.192,4.608,49.92    c3.424,8.064,5.856,19.328,4.704,33.792C328.192,283.616,347.552,288,368,288c79.52,0,144-64.48,144-144S447.52,0,368,0z     M411.328,203.328C408.192,206.432,404.096,208,400,208s-8.192-1.568-11.328-4.672l-48-48C337.696,152.32,336,148.256,336,144V80    c0-8.832,7.168-16,16-16c8.832,0,16,7.168,16,16v57.376l43.328,43.328C417.568,186.944,417.568,197.056,411.328,203.328z" fill="#ffffff" data-original="#000000" style="" class=""/>
	</g>
</g>
<g xmlns="http://www.w3.org/2000/svg">
</g>
<g xmlns="http://www.w3.org/2000/svg">
</g>
<g xmlns="http://www.w3.org/2000/svg">
</g>
<g xmlns="http://www.w3.org/2000/svg">
</g>
<g xmlns="http://www.w3.org/2000/svg">
</g>
<g xmlns="http://www.w3.org/2000/svg">
</g>
<g xmlns="http://www.w3.org/2000/svg">
</g>
<g xmlns="http://www.w3.org/2000/svg">
</g>
<g xmlns="http://www.w3.org/2000/svg">
</g>
<g xmlns="http://www.w3.org/2000/svg">
</g>
<g xmlns="http://www.w3.org/2000/svg">
</g>
<g xmlns="http://www.w3.org/2000/svg">
</g>
<g xmlns="http://www.w3.org/2000/svg">
</g>
<g xmlns="http://www.w3.org/2000/svg">
</g>
<g xmlns="http://www.w3.org/2000/svg">
</g>
</g></svg>
